<svg id="visual" viewBox="0 0 256 256" width="256" height="256" xmlns="http://www.w3.org/2000/svg" xmlns:xlink="http://www.w3.org/1999/xlink" version="1.1"><path d="M0 32L85 37L171 47L256 29L256 0L171 0L85 0L0 0Z" fill="#ffffff"></path><path d="M0 101L85 116L171 116L256 103L256 27L171 45L85 35L0 30Z" fill="#f6f6f6"></path><path d="M0 119L85 129L171 139L256 116L256 101L171 114L85 114L0 99Z" fill="#eeeeee"></path><path d="M0 139L85 152L171 162L256 134L256 114L171 137L85 127L0 117Z" fill="#e5e5e5"></path><path d="M0 201L85 198L171 208L256 198L256 132L171 160L85 150L0 137Z" fill="#dddddd"></path><path d="M0 231L85 231L171 237L256 226L256 196L171 206L85 196L0 199Z" fill="#d4d4d4"></path><path d="M0 257L85 257L171 257L256 257L256 224L171 235L85 229L0 229Z" fill="#cccccc"></path></svg>